<svg width="117" height="58" viewBox="0 0 117 58" fill="none" xmlns="http://www.w3.org/2000/svg">
<rect opacity="0.9" y="0.0793457" width="117" height="56.9983" rx="28.4991" fill="#685DC5"/>
<path d="M44.8966 32.0793C47.9206 32.0793 50.6926 30.0273 50.6926 25.7793C50.6926 21.5313 47.9206 19.4793 44.8966 19.4793H41.1886V32.0793H44.8966ZM43.1686 21.3513H44.3206C46.5346 21.3513 48.6766 22.3413 48.6766 25.7793C48.6766 29.2173 46.5346 30.2073 44.3206 30.2073H43.1686V21.3513ZM54.6194 32.0793V28.7133C54.6194 25.8513 55.8614 24.5193 57.0674 24.5193C57.4454 24.5193 57.8414 24.5913 58.1294 24.7893L58.4534 23.0793C58.1834 22.9533 57.7874 22.8633 57.3014 22.8633C56.3114 22.8633 55.2494 23.4393 54.6194 24.5193V23.0073H52.7474V32.0793H54.6194ZM58.9832 29.4693C58.9832 31.3593 60.2612 32.2233 61.7733 32.2233C63.0693 32.2233 63.9873 31.7373 64.5813 30.8913L64.7613 32.0793H66.3453V26.4453C66.3453 23.7813 64.8333 22.8633 62.7272 22.8633C60.9812 22.8633 59.6852 23.8353 59.3072 25.3653L61.0172 25.7253C61.3233 24.9153 61.9712 24.5193 62.7093 24.5193C63.6633 24.5193 64.4732 24.9693 64.4732 26.1033V26.4993H62.9073C60.5852 26.4993 58.9832 27.5973 58.9832 29.4693ZM60.9633 29.4693C60.9633 28.6053 61.6832 28.0653 62.8353 28.0653H64.4732V28.2633C64.4732 29.8293 63.2493 30.5673 62.0972 30.5673C61.3052 30.5673 60.9633 30.0993 60.9633 29.4693ZM68.1381 32.9073C68.1381 34.8693 69.8481 35.8953 72.1341 35.8953C74.1681 35.8953 76.1121 35.0133 76.1121 32.7633C76.1121 31.0533 74.8881 30.1713 73.1061 30.1713H71.1081C70.4781 30.1713 70.1721 29.9373 70.1721 29.4693C70.1721 29.1273 70.3341 28.8573 70.6581 28.6773C71.0721 28.8393 71.5581 28.9473 72.1161 28.9473C73.9341 28.9473 75.3741 27.8313 75.3741 25.9053C75.3741 25.3473 75.2481 24.8433 74.9781 24.3933L76.2021 23.7093L75.4461 22.3593L73.7721 23.2593C73.2681 22.9893 72.7101 22.8633 72.1161 22.8633C70.2981 22.8633 68.8761 24.0153 68.8761 25.9053C68.8761 26.6793 69.0741 27.3093 69.4881 27.8133C68.8221 28.1913 68.3901 28.8393 68.3901 29.6493C68.3901 30.2793 68.5701 30.7293 68.9121 31.0713C68.4261 31.5033 68.1381 32.1333 68.1381 32.9073ZM69.9381 32.7993C69.9381 32.3493 70.0641 31.9713 70.3341 31.7013C70.6221 31.7373 70.9281 31.7553 71.2521 31.7553H72.7101C73.5921 31.7553 74.2041 32.0433 74.2041 32.9073C74.2041 33.7893 73.4301 34.2753 72.1341 34.2753C70.7481 34.2753 69.9381 33.7173 69.9381 32.7993ZM70.6941 25.9053C70.6941 24.9873 71.2701 24.4293 72.1161 24.4293C72.9621 24.4293 73.5561 24.9873 73.5561 25.9053C73.5561 26.8233 72.9621 27.3813 72.1161 27.3813C71.2701 27.3813 70.6941 26.8233 70.6941 25.9053Z" fill="white"/>
</svg>
